<svg width="60" height="60" xmlns="http://www.w3.org/2000/svg" color-interpolation-filters="sRGB" preserveAspectRatio="xMidYMid meet" version="1.0">
 <g>
  <title>background</title>
  <rect x="-1" y="-1" width="62" height="62" id="canvas_background" fill="none"/>
 </g>

 <g>
  <title>Layer 1</title>
  <g id="svg_5" class="icon-text-wrapper icon-svg-group iconsvg" fill="#0072b9">
   <g id="svg_6" class="iconsvg-imagesvg">
    <g id="svg_7">
     <rect id="svg_8" class="image-rect" height="46.33849" width="60" y="6.56576" x="0" stroke-width="2" fill-opacity="0" fill="#0072b9"/>
     <svg id="svg_2" class="image-svg-svg primary" filtersec="colorsb8863104334" height="46.33849" width="60" y="6.56576" x="0">
      <svg id="svg_22" viewBox="0 0 309.1000061035156 238.72000122070312" xmlns="http://www.w3.org/2000/svg">
       <g id="svg_23">
        <g id="svg_29">
         <path id="svg_40" fill="#0072b9" d="m154.55,238.72c31.51,-33.89 100.61,-44.34 154.55,-14.43l0,13.76c-46.43,-27.88 -124.6,-23.46 -154.55,0.67z"/>
         <path id="svg_39" fill="#fcc800" d="m154.55,238.72c28.45,-47.93 100.61,-67.72 154.55,-37.78l0,13.76c-46.43,-27.88 -124.47,-19.14 -154.55,24.02z"/>
         <path id="svg_38" fill="#87b525" d="m154.55,238.72c21.41,-62.5 100.61,-90 154.55,-60.13l0,13.76c-46.43,-27.87 -123.91,-11.11 -154.55,46.37z"/>
         <path id="svg_37" fill="#0072b9" d="m154.55,238.72c-31.5,-33.89 -100.61,-44.34 -154.55,-14.43l0,13.76c46.43,-27.88 124.6,-23.46 154.55,0.67z"/>
         <path id="svg_36" fill="#fcc800" d="m154.55,238.72c-28.4,-47.93 -100.61,-67.72 -154.55,-37.78l0,13.76c46.43,-27.88 124.47,-19.14 154.55,24.02z"/>
         <path id="svg_35" fill="#87b525" d="m154.55,238.72c-21.4,-62.5 -100.61,-90 -154.55,-60.13l0,13.76c46.43,-27.87 123.91,-11.11 154.55,46.37z"/>
         <path id="svg_34" fill="#0072b9" d="m139.62,186.87c-18.58,-24.47 -6.41,-59.69 5.4,-85.63c-22.66,28.27 -55,13.43 -67.36,-15.46c1.07,23.6 34.44,86.22 61.96,101.09z"/>
         <path id="svg_33" fill="#0072b9" d="m139.63,85.78l-24.22,-17.07l-21.57,20.29l9.07,4.21a13.23,13.23 0 0 0 -0.37,4.14a13,13 0 0 0 25.9,-1.83a13.55,13.55 0 0 0 -0.36,-2.25l11.55,-7.49z"/>
         <path id="svg_32" fill="#87b525" d="m175.13,165.33c16.13,-32.92 -6.23,-71.34 -26,-99c33,27.88 67.42,3.07 75.29,-33.61c4.16,27.89 -20.48,108.91 -49.29,132.61z"/>
         <path id="svg_31" fill="#87b525" d="m151.86,47l24.42,-25.57l29.92,18.81l-9.64,7a15.5,15.5 0 1 1 -29.45,5.85l-15.25,-6.09z"/>
         <path id="svg_30" d="m77.84,65.63l2.12,6.53l6.87,0l-5.55,4.03l2.12,6.53l-5.56,-4.04l-5.55,4.04l2.12,-6.53l-5.55,-4.03l6.86,0l2.12,-6.53zm147.03,-65.63l3.73,11.5l12.09,0l-9.78,7.11l3.74,11.5l-9.78,-7.11l-9.79,7.11l3.74,-11.5l-9.78,-7.11l12.09,0l3.74,-11.5z" fill="#fcc800"/>
        </g>
       </g>
      </svg>
     </svg>
     <!---->
    </g>
   </g>
   <g id="svg_24"/>
  </g>
 </g>
</svg>