<svg width="180" height="87" xmlns="http://www.w3.org/2000/svg" version="1.0" preserveAspectRatio="xMidYMid meet" color-interpolation-filters="sRGB">

 <g>
  <title>background</title>
  <rect fill="none" id="canvas_background" height="89" width="182" y="-1" x="-1"/>
 </g>
 <g>
  <title>Layer 1</title>
  <g fill="#0072b9" class="icon-text-wrapper icon-svg-group iconsvg" id="svg_5">
   <g class="iconsvg-imagesvg" id="svg_6">
    <g id="svg_7">
     <rect fill="#0072b9" fill-opacity="0" stroke-width="2" x="60" y="1.56576" width="60" height="46.33849" class="image-rect" id="svg_8"/>
     <svg x="60" y="1.56576" width="60" height="46.33849" filtersec="colorsb8863104334" class="image-svg-svg primary" id="svg_1">
      <svg viewBox="0 0 309.1000061035156 238.72000122070312" id="svg_37" xmlns="http://www.w3.org/2000/svg">
       <g id="svg_38">
        <g id="svg_39">
         <path d="m154.55,238.72c31.51,-33.89 100.61,-44.34 154.55,-14.43l0,13.76c-46.43,-27.88 -124.6,-23.46 -154.55,0.67z" fill="#0072b9" id="svg_50"/>
         <path d="m154.55,238.72c28.45,-47.93 100.61,-67.72 154.55,-37.78l0,13.76c-46.43,-27.88 -124.47,-19.14 -154.55,24.02z" fill="#fcc800" id="svg_49"/>
         <path d="m154.55,238.72c21.41,-62.5 100.61,-90 154.55,-60.13l0,13.76c-46.43,-27.87 -123.91,-11.11 -154.55,46.37z" fill="#87b525" id="svg_48"/>
         <path d="m154.55,238.72c-31.5,-33.89 -100.61,-44.34 -154.55,-14.43l0,13.76c46.43,-27.88 124.6,-23.46 154.55,0.67z" fill="#0072b9" id="svg_47"/>
         <path d="m154.55,238.72c-28.4,-47.93 -100.61,-67.72 -154.55,-37.78l0,13.76c46.43,-27.88 124.47,-19.14 154.55,24.02z" fill="#fcc800" id="svg_46"/>
         <path d="m154.55,238.72c-21.4,-62.5 -100.61,-90 -154.55,-60.13l0,13.76c46.43,-27.87 123.91,-11.11 154.55,46.37z" fill="#87b525" id="svg_45"/>
         <path d="m139.62,186.87c-18.58,-24.47 -6.41,-59.69 5.4,-85.63c-22.66,28.27 -55,13.43 -67.36,-15.46c1.07,23.6 34.44,86.22 61.96,101.09z" fill="#0072b9" id="svg_44"/>
         <path d="m139.63,85.78l-24.22,-17.07l-21.57,20.29l9.07,4.21a13.23,13.23 0 0 0 -0.37,4.14a13,13 0 0 0 25.9,-1.83a13.55,13.55 0 0 0 -0.36,-2.25l11.55,-7.49z" fill="#0072b9" id="svg_43"/>
         <path d="m175.13,165.33c16.13,-32.92 -6.23,-71.34 -26,-99c33,27.88 67.42,3.07 75.29,-33.61c4.16,27.89 -20.48,108.91 -49.29,132.61z" fill="#87b525" id="svg_42"/>
         <path d="m151.86,47l24.42,-25.57l29.92,18.81l-9.64,7a15.5,15.5 0 1 1 -29.45,5.85l-15.25,-6.09z" fill="#87b525" id="svg_41"/>
         <path fill="#fcc800" d="m77.84,65.63l2.12,6.53l6.87,0l-5.55,4.03l2.12,6.53l-5.56,-4.04l-5.55,4.04l2.12,-6.53l-5.55,-4.03l6.86,0l2.12,-6.53zm147.03,-65.63l3.73,11.5l12.09,0l-9.78,7.11l3.74,11.5l-9.78,-7.11l-9.79,7.11l3.74,-11.5l-9.78,-7.11l12.09,0l3.74,-11.5z" id="svg_40"/>
        </g>
       </g>
      </svg>
     </svg>
     <!---->
    </g>
   </g>
   <g id="svg_24">
    <g data-gra="path-name" class="tp-name iconsvg-namesvg" id="svg_25">
     <g transform="translate(80.81999969482422,82.56580352783203) scale(1) " id="svg_26">
      <g id="svg_27">
       <path d="m-62.77,-3.35151l0,0q0,1.84 -0.66,3.2q-0.67,1.36 -1.71,2.25q-1.03,0.89 -2.28,1.33q-1.26,0.44 -2.41,0.44l0,0q-1.92,0 -3.74,-0.87q-1.81,-0.87 -3.25,-2.72q-1.44,-1.85 -2.31,-4.75q-0.87,-2.91 -0.87,-6.97l0,0q0,-2.72 0.42,-4.86q0.42,-2.13 1.13,-3.75q0.72,-1.62 1.69,-2.77q0.96,-1.14 2.08,-1.86q1.11,-0.71 2.31,-1.04q1.19,-0.34 2.34,-0.34l0,0q1.75,0 3.01,0.49q1.26,0.49 2.08,1.26q0.82,0.76 1.21,1.7q0.39,0.94 0.39,1.84l0,0q0,0.9 -0.24,1.61q-0.25,0.71 -0.66,1.2q-0.41,0.49 -0.97,0.75q-0.57,0.25 -1.22,0.25l0,0q-0.54,0 -1.09,-0.2q-0.55,-0.19 -0.98,-0.56q-0.43,-0.37 -0.69,-0.91q-0.27,-0.54 -0.27,-1.22l0,0q0.02,-0.4 0.1,-0.83l0,0q0.08,-0.37 0.24,-0.81q0.17,-0.44 0.5,-0.89l0,0q-0.29,-0.27 -0.62,-0.44q-0.34,-0.16 -0.61,-0.24l0,0q-0.33,-0.08 -0.66,-0.12l0,0q-0.77,0 -1.35,0.47q-0.59,0.47 -1.02,1.3q-0.43,0.83 -0.72,1.97q-0.3,1.13 -0.46,2.46q-0.17,1.33 -0.25,2.79q-0.08,1.45 -0.08,2.94l0,0q0,2.23 0.25,4.39q0.24,2.16 0.8,3.87q0.56,1.72 1.49,2.76q0.92,1.05 2.27,1.05l0,0q0.83,-0.06 1.49,-0.47l0,0q0.29,-0.18 0.57,-0.44q0.27,-0.26 0.5,-0.67q0.22,-0.4 0.37,-0.92q0.14,-0.53 0.18,-1.24l0,0q-0.33,0.14 -0.76,0.14l0,0q-0.47,0 -0.91,-0.21q-0.44,-0.2 -0.79,-0.56q-0.35,-0.36 -0.57,-0.86q-0.21,-0.5 -0.21,-1.11l0,0q0,-0.92 0.42,-1.51q0.42,-0.6 0.97,-0.95q0.54,-0.35 1.07,-0.5q0.53,-0.15 0.74,-0.15l0,0q0.16,0 0.49,0.05q0.34,0.05 0.76,0.23q0.42,0.17 0.86,0.51q0.44,0.35 0.8,0.93q0.36,0.59 0.6,1.46q0.23,0.87 0.23,2.1zm1.66,-23.96l5.3,0.08q-0.15,2.54 -0.29,5.05q-0.14,2.5 -0.23,5.04l0,0q0.68,-1.29 1.52,-2q0.84,-0.71 1.59,-1.05l0,0q0.86,-0.39 1.74,-0.47l0,0q1.4,0 2.4,0.69q1,0.68 1.64,1.95q0.65,1.27 0.94,3.06q0.3,1.79 0.3,4l0,0q0,3.7 -0.25,7.15q-0.24,3.46 -1.02,6.74l0,0l-4.58,-0.55q0.45,-2.32 0.69,-4.34q0.25,-2.01 0.37,-3.52l0,0q0.13,-1.76 0.15,-3.23l0,0q0,-1.85 -0.05,-3.23q-0.05,-1.38 -0.27,-2.29q-0.23,-0.91 -0.7,-1.36q-0.46,-0.45 -1.31,-0.45l0,0q-0.64,0.1 -1.27,0.78l0,0q-0.27,0.29 -0.54,0.74q-0.28,0.45 -0.56,1.11q-0.29,0.65 -0.54,1.54q-0.25,0.88 -0.45,2.03l0,0q-0.06,1.99 -0.07,3.97q-0.01,1.98 -0.01,3.93l0,0q0,1.23 0,2.48q0,1.26 0.04,2.49l0,0l-4.44,-0.1q0.22,-3.58 0.32,-7.16q0.11,-3.58 0.11,-7.21l0,0q0,-3.99 -0.14,-7.94q-0.13,-3.94 -0.39,-7.93l0,0zm31.26,30.38l-4.52,0.27q-0.12,-0.6 -0.22,-1.23q-0.09,-0.63 -0.15,-1.29l0,0q-0.9,1.33 -2.15,2.04q-1.25,0.72 -2.74,0.72l0,0q-0.76,0 -1.57,-0.25q-0.8,-0.24 -1.45,-0.85q-0.66,-0.61 -1.08,-1.65q-0.42,-1.05 -0.42,-2.65l0,0q0,-1.33 0.39,-2.32q0.39,-0.99 1.02,-1.73q0.62,-0.74 1.41,-1.29q0.78,-0.55 1.55,-0.98q0.77,-0.43 1.48,-0.8q0.7,-0.37 1.15,-0.74l0,0q0.86,-0.69 1.5,-1.46q0.63,-0.77 1.03,-1.62l0,0q-0.08,-1.34 -0.29,-2.21q-0.2,-0.88 -0.54,-1.39q-0.33,-0.52 -0.81,-0.73q-0.48,-0.2 -1.08,-0.2l0,0q-0.9,0 -1.52,0.39q-0.61,0.39 -1.01,0.94l0,0q0.49,0.31 0.76,0.66q0.26,0.35 0.4,0.69l0,0q0.15,0.37 0.17,0.76l0,0q0,1.33 -0.75,2.03q-0.75,0.71 -1.93,0.71l0,0q-0.6,0 -1.11,-0.29q-0.51,-0.28 -0.89,-0.79q-0.38,-0.51 -0.6,-1.21q-0.21,-0.7 -0.21,-1.53l0,0q0,-0.82 0.37,-1.74q0.37,-0.92 1.19,-1.71q0.82,-0.79 2.12,-1.31q1.29,-0.52 3.12,-0.52l0,0q1.84,0 3.15,0.72q1.31,0.71 2.15,1.89q0.85,1.19 1.23,2.73q0.38,1.55 0.38,3.19l0,0q0,1.23 -0.02,2.68q-0.02,1.45 -0.02,2.97l0,0q0,1.27 0.02,2.55q0.02,1.27 0.08,2.45q0.06,1.18 0.15,2.23q0.1,1.05 0.26,1.87l0,0zm-4.97,-7.02l0.16,-4.17q-0.69,0.82 -1.47,1.41l0,0q-0.59,0.41 -1.26,0.92q-0.68,0.51 -1.25,1.07q-0.58,0.57 -0.96,1.19q-0.38,0.61 -0.38,1.26l0,0q0,0.88 0.43,1.5q0.43,0.63 1.21,0.63l0,0q0.72,0 1.29,-0.39q0.57,-0.39 1.01,-0.97q0.44,-0.58 0.74,-1.24q0.3,-0.67 0.48,-1.21l0,0zm12.34,7.29l0,0l-5.22,0.39q0.31,-3.5 0.46,-6.75q0.15,-3.26 0.15,-6.53l0,0q0,-2.31 -0.07,-4.62q-0.07,-2.32 -0.25,-4.77l0,0l4.4,-0.23q-0.04,0.43 -0.05,0.84q-0.02,0.41 -0.02,0.8l0,0q0.68,-1.05 1.49,-1.65q0.81,-0.6 1.52,-0.87l0,0q0.8,-0.33 1.62,-0.41l0,0q1.43,0 2.45,0.44q1.01,0.44 1.66,1.13q0.64,0.7 0.94,1.55q0.29,0.85 0.29,1.65l0,0q0,0.82 -0.18,1.66q-0.17,0.84 -0.59,1.52q-0.42,0.67 -1.12,1.09q-0.69,0.43 -1.71,0.43l0,0q-1.02,0 -1.6,-0.38q-0.59,-0.37 -0.89,-0.89q-0.31,-0.51 -0.39,-1.07q-0.09,-0.56 -0.09,-0.95l0,0q0,-0.27 0.1,-0.62q0.09,-0.34 0.29,-0.69q0.2,-0.35 0.49,-0.7q0.29,-0.34 0.68,-0.63l0,0q-0.11,-0.04 -0.24,-0.06q-0.13,-0.02 -0.25,-0.02l0,0q-0.97,0 -1.74,0.62q-0.76,0.61 -1.32,1.71q-0.55,1.09 -0.92,2.58q-0.36,1.49 -0.53,3.25l0,0q0.09,3.03 0.27,6q0.18,2.97 0.37,6.18zm10.9,-31l5.08,0.12q-0.12,2.38 -0.21,4.42q-0.1,2.03 -0.17,3.83q-0.07,1.8 -0.11,3.43q-0.04,1.62 -0.07,3.2q-0.03,1.59 -0.04,3.19q0,1.6 0,3.36l0,0q0,1.96 0,4.19q0,2.23 0.03,4.95l0,0l-4.44,-0.1q0.12,-2.95 0.16,-5.82q0.04,-2.86 0.04,-5.88l0,0q0,-2.01 -0.02,-4.13q-0.02,-2.12 -0.06,-4.44q-0.04,-2.32 -0.09,-4.88q-0.05,-2.56 -0.1,-5.44l0,0zm21.45,25.99l0,0q0,1.16 -0.53,2.18q-0.52,1.01 -1.42,1.76q-0.9,0.74 -2.12,1.17q-1.21,0.43 -2.58,0.43l0,0q-0.92,0 -1.86,-0.25q-0.93,-0.26 -1.8,-0.85q-0.86,-0.58 -1.62,-1.54q-0.76,-0.96 -1.32,-2.35q-0.56,-1.39 -0.88,-3.25q-0.32,-1.87 -0.32,-4.3l0,0q0,-2.29 0.32,-4.05q0.32,-1.76 0.88,-3.07q0.56,-1.31 1.3,-2.2q0.74,-0.89 1.6,-1.44q0.85,-0.56 1.76,-0.8q0.91,-0.23 1.79,-0.23l0,0q1.31,0 2.48,0.42q1.17,0.42 2.05,1.24q0.88,0.82 1.4,2.03q0.52,1.2 0.52,2.76l0,0q0,1.41 -0.58,2.85q-0.57,1.44 -1.71,2.72q-1.13,1.28 -2.81,2.33q-1.67,1.04 -3.84,1.65l0,0q0.12,1.21 0.34,2.21q0.23,1 0.57,1.7q0.34,0.7 0.8,1.09q0.46,0.4 1.07,0.4l0,0q0.39,-0.02 0.74,-0.14l0,0q0.32,-0.1 0.64,-0.31q0.32,-0.22 0.54,-0.63l0,0q-0.51,-0.23 -0.79,-0.61q-0.27,-0.37 -0.41,-0.7l0,0q-0.15,-0.39 -0.17,-0.82l0,0q0,-0.94 0.37,-1.53q0.37,-0.58 0.88,-0.92q0.51,-0.33 1.04,-0.46q0.52,-0.12 0.84,-0.12l0,0q0.33,0 0.81,0.13q0.48,0.14 0.93,0.53q0.45,0.39 0.77,1.11q0.32,0.71 0.32,1.86zm-4.83,-12.3l0,0q0,-0.7 -0.13,-1.34q-0.12,-0.63 -0.37,-1.1q-0.24,-0.47 -0.6,-0.76q-0.37,-0.28 -0.84,-0.28l0,0q-0.8,0 -1.31,0.73q-0.5,0.74 -0.82,1.95q-0.31,1.21 -0.43,2.8q-0.11,1.58 -0.11,3.3l0,0l0,1.43q0.99,-0.53 1.84,-1.25q0.85,-0.72 1.47,-1.6q0.62,-0.87 0.96,-1.84q0.34,-0.98 0.34,-2.04zm20.42,-1.11l0,0q0,0.9 -0.33,1.52q-0.33,0.63 -0.8,1.02q-0.47,0.39 -0.98,0.57q-0.51,0.17 -0.86,0.17l0,0q-0.35,0 -0.84,-0.12q-0.49,-0.13 -0.93,-0.46q-0.44,-0.34 -0.76,-0.89q-0.31,-0.56 -0.31,-1.42l0,0q0.02,-0.47 0.18,-0.92l0,0q0.13,-0.39 0.42,-0.81q0.28,-0.42 0.81,-0.76l0,0q-0.35,-0.5 -0.7,-0.78q-0.36,-0.27 -0.63,-0.41l0,0q-0.33,-0.15 -0.61,-0.19l0,0q-0.6,0 -1.09,0.24q-0.49,0.24 -0.83,0.65q-0.35,0.4 -0.53,0.92q-0.19,0.53 -0.19,1.1l0,0q0,0.72 0.1,1.31q0.1,0.59 0.45,1.19q0.35,0.61 1.06,1.31q0.7,0.71 1.91,1.65l0,0q1.22,0.94 2.12,1.83q0.9,0.89 1.48,1.75q0.59,0.86 0.88,1.73q0.3,0.87 0.3,1.81l0,0q0,0.62 -0.13,1.36q-0.13,0.73 -0.43,1.48q-0.3,0.76 -0.8,1.45q-0.5,0.69 -1.24,1.24q-0.73,0.55 -1.72,0.87q-0.98,0.32 -2.26,0.32l0,0q-1.91,0 -3.26,-0.56q-1.35,-0.57 -2.22,-1.38q-0.87,-0.81 -1.27,-1.71q-0.4,-0.9 -0.4,-1.59l0,0q0,-0.72 0.17,-1.35q0.18,-0.62 0.56,-1.09q0.38,-0.47 0.98,-0.74q0.59,-0.26 1.43,-0.26l0,0q0.71,0 1.29,0.22q0.57,0.21 0.99,0.63q0.42,0.42 0.66,1.03q0.23,0.6 0.23,1.37l0,0q-0.02,0.33 -0.13,0.68l0,0q-0.1,0.3 -0.34,0.65q-0.23,0.35 -0.64,0.66l0,0q0.27,0.22 0.54,0.33q0.26,0.1 0.48,0.14l0,0q0.23,0.06 0.46,0.06l0,0q0.26,0 0.6,-0.15q0.34,-0.14 0.66,-0.46q0.31,-0.31 0.52,-0.76q0.22,-0.45 0.22,-1.07l0,0q0,-0.63 -0.11,-1.15q-0.11,-0.52 -0.45,-1.07q-0.34,-0.56 -0.99,-1.23q-0.64,-0.66 -1.7,-1.6l0,0q-1.05,-0.94 -1.87,-1.83q-0.83,-0.89 -1.38,-1.85q-0.56,-0.96 -0.85,-2.01q-0.3,-1.06 -0.3,-2.33l0,0q0,-1.25 0.5,-2.42q0.5,-1.18 1.42,-2.09q0.92,-0.91 2.23,-1.45q1.31,-0.53 2.93,-0.53l0,0q1.65,0 2.84,0.51q1.19,0.5 1.95,1.35q0.77,0.86 1.14,1.97q0.37,1.12 0.37,2.35zm22.4,-10.94l5.2,-0.15q-0.1,1.58 -0.17,3.29q-0.07,1.71 -0.12,3.44q-0.04,1.72 -0.07,3.38q-0.03,1.66 -0.05,3.13q-0.02,1.47 -0.02,2.68q0,1.21 0,2.05l0,0q0,1.1 0,2.43q0,1.33 0.02,2.74q0.02,1.4 0.05,2.82q0.03,1.42 0.08,2.67l0,0q-0.84,-0.04 -1.53,-0.04q-0.7,0 -1.26,0l0,0q-1.02,0 -1.68,0.02q-0.67,0.02 -1.06,0.06l0,0q-0.47,0.04 -0.72,0.08l0,0q-0.06,-0.41 -0.25,-1.28q-0.18,-0.87 -0.47,-2.07q-0.28,-1.19 -0.65,-2.64q-0.38,-1.44 -0.8,-3.01q-0.42,-1.56 -0.87,-3.18q-0.45,-1.61 -0.89,-3.15q-0.44,-1.53 -0.86,-2.91q-0.42,-1.38 -0.77,-2.47l0,0q-0.16,2.5 -0.23,4.62q-0.08,2.12 -0.12,3.71l0,0q-0.06,1.84 -0.06,3.36l0,0q0,1.31 0.06,2.78l0,0q0.04,1.25 0.15,2.86q0.1,1.6 0.32,3.26l0,0q-1.51,-0.06 -2.48,-0.07q-0.96,-0.01 -1.53,-0.01l0,0l-0.96,0q0.1,-3.5 0.16,-5.94q0.06,-2.45 0.08,-4.1q0.03,-1.65 0.04,-2.65q0.01,-1 0.01,-1.61q0,-0.62 -0.01,-0.99q-0.01,-0.37 -0.01,-0.76l0,0q0,-0.98 -0.01,-2.33q-0.01,-1.35 -0.04,-2.91q-0.04,-1.55 -0.12,-3.23q-0.08,-1.69 -0.22,-3.33l0,0q2,0 3.29,-0.04q1.29,-0.04 2.05,-0.08l0,0q0.9,-0.05 1.39,-0.11l0,0q0.1,0.62 0.4,1.95q0.31,1.33 0.73,3.08q0.42,1.75 0.94,3.79q0.53,2.03 1.09,4.1q0.56,2.06 1.12,4.01q0.57,1.94 1.08,3.51l0,0q0.1,-1.67 0.15,-3.4q0.05,-1.73 0.08,-3.23q0.02,-1.51 0.02,-2.64q0,-1.12 0,-1.55l0,0q-0.02,-1.78 -0.07,-3.56l0,0q-0.02,-0.76 -0.06,-1.58q-0.04,-0.83 -0.09,-1.66q-0.05,-0.83 -0.12,-1.63q-0.07,-0.8 -0.14,-1.51l0,0zm15.02,29.67l0,0q-1.94,0 -3.34,-0.84q-1.4,-0.84 -2.31,-2.34q-0.91,-1.51 -1.34,-3.58q-0.43,-2.08 -0.43,-4.52l0,0q0,-2.84 0.51,-5.2q0.51,-2.37 1.5,-4.07q0.99,-1.7 2.44,-2.65q1.46,-0.95 3.36,-0.95l0,0q1.91,0 3.3,0.8q1.39,0.8 2.3,2.25q0.91,1.45 1.34,3.46q0.43,2.02 0.43,4.44l0,0q0,1.25 -0.15,2.72q-0.14,1.47 -0.48,2.94q-0.35,1.46 -0.91,2.82q-0.57,1.36 -1.43,2.42q-0.86,1.05 -2.05,1.68q-1.18,0.62 -2.74,0.62zm3.05,-14.64l0,0q0,-1.49 -0.14,-2.67q-0.14,-1.19 -0.44,-2.01q-0.3,-0.82 -0.76,-1.26q-0.46,-0.44 -1.11,-0.44l0,0q-0.7,0 -1.31,0.74q-0.6,0.75 -1.06,2.15q-0.46,1.41 -0.73,3.44q-0.26,2.02 -0.26,4.56l0,0q0,1.65 0.16,2.95q0.15,1.3 0.46,2.21q0.32,0.91 0.78,1.39q0.46,0.47 1.08,0.47l0,0q0.63,0 1.12,-0.51q0.49,-0.52 0.85,-1.4q0.36,-0.88 0.62,-2.05q0.27,-1.16 0.42,-2.44q0.16,-1.28 0.24,-2.61q0.08,-1.33 0.08,-2.52zm8.92,-16.12l4.96,-0.08q-0.15,2.02 -0.25,3.96q-0.1,1.95 -0.2,3.9l0,0q0.87,-0.04 1.71,-0.07q0.84,-0.02 1.72,-0.08l0,0l0.08,5q-0.94,-0.15 -1.86,-0.25q-0.92,-0.1 -1.8,-0.16l0,0q-0.06,1.67 -0.07,3.29q-0.01,1.62 -0.01,3.28l0,0q0,2.98 0.07,5.91q0.07,2.94 0.22,5.91l0,0l-5.1,-0.08q0.25,-4.6 0.42,-9.18q0.17,-4.59 0.22,-9.24l0,0q-0.82,0.03 -1.64,0.08q-0.82,0.05 -1.68,0.11l0,0l0.16,-4.63q0.8,0.05 1.59,0.08q0.79,0.03 1.57,0.07l0,0q0,-1.95 -0.04,-3.9q-0.03,-1.95 -0.07,-3.92l0,0zm23.51,25.44l0,0q0,1.16 -0.53,2.18q-0.53,1.01 -1.43,1.76q-0.9,0.74 -2.11,1.17q-1.21,0.43 -2.58,0.43l0,0q-0.92,0 -1.86,-0.25q-0.94,-0.26 -1.8,-0.85q-0.86,-0.58 -1.62,-1.54q-0.77,-0.96 -1.32,-2.35q-0.56,-1.39 -0.88,-3.25q-0.33,-1.87 -0.33,-4.3l0,0q0,-2.29 0.33,-4.05q0.32,-1.76 0.88,-3.07q0.55,-1.31 1.3,-2.2q0.74,-0.89 1.59,-1.44q0.85,-0.56 1.76,-0.8q0.91,-0.23 1.79,-0.23l0,0q1.31,0 2.48,0.42q1.18,0.42 2.06,1.24q0.88,0.82 1.4,2.03q0.51,1.2 0.51,2.76l0,0q0,1.41 -0.57,2.85q-0.58,1.44 -1.71,2.72q-1.14,1.28 -2.81,2.33q-1.67,1.04 -3.84,1.65l0,0q0.11,1.21 0.34,2.21q0.22,1 0.57,1.7q0.34,0.7 0.8,1.09q0.46,0.4 1.06,0.4l0,0q0.39,-0.02 0.75,-0.14l0,0q0.31,-0.1 0.63,-0.31q0.32,-0.22 0.54,-0.63l0,0q-0.51,-0.23 -0.78,-0.61q-0.28,-0.37 -0.41,-0.7l0,0q-0.16,-0.39 -0.18,-0.82l0,0q0,-0.94 0.37,-1.53q0.37,-0.58 0.88,-0.92q0.51,-0.33 1.04,-0.46q0.53,-0.12 0.84,-0.12l0,0q0.33,0 0.81,0.13q0.48,0.14 0.93,0.53q0.45,0.39 0.77,1.11q0.33,0.71 0.33,1.86zm-4.83,-12.3l0,0q0,-0.7 -0.13,-1.34q-0.13,-0.63 -0.37,-1.1q-0.25,-0.47 -0.61,-0.76q-0.36,-0.28 -0.83,-0.28l0,0q-0.8,0 -1.31,0.73q-0.51,0.74 -0.82,1.95q-0.32,1.21 -0.43,2.8q-0.12,1.58 -0.12,3.3l0,0l0,1.43q1,-0.53 1.85,-1.25q0.85,-0.72 1.46,-1.6q0.62,-0.87 0.96,-1.84q0.35,-0.98 0.35,-2.04z" id="svg_28"/>
      </g>
     </g>
    </g>
   </g>
  </g>
 </g>
</svg>